<svg width="41" height="43" viewBox="0 0 41 43" fill="none" xmlns="http://www.w3.org/2000/svg">
<path d="M1.56214 27.0392C1.13683 29.8273 3.03829 31.7625 5.3664 32.7269C14.2919 36.4244 26.7127 36.4244 35.6382 32.7269C37.9663 31.7625 39.8678 29.8273 39.4424 27.0392C39.1811 25.3258 37.8886 23.8991 36.9311 22.5058C35.6769 20.6585 35.5522 18.6437 35.552 16.5C35.552 8.21573 28.814 1.5 20.5023 1.5C12.1906 1.5 5.45255 8.21573 5.45255 16.5C5.45236 18.6437 5.32774 20.6585 4.07351 22.5058C3.11597 23.899 1.82352 25.3258 1.56214 27.0392Z" stroke="#141B34" stroke-width="3" stroke-linecap="round" stroke-linejoin="round"/>
<path d="M12.5023 35.5C13.4193 38.9505 16.6534 41.5 20.5023 41.5C24.3512 41.5 27.5853 38.9505 28.5023 35.5" stroke="#141B34" stroke-width="3" stroke-linecap="round" stroke-linejoin="round"/>
</svg>
